<svg width="28" height="28" viewBox="0 0 28 28" fill="none" xmlns="http://www.w3.org/2000/svg">
<path d="M8.18149 5.9431C8.18118 6.55519 7.93774 7.1421 7.5047 7.5747C7.07167 8.0073 6.48452 8.25016 5.87243 8.24985C5.26033 8.24954 4.67343 8.0061 4.24083 7.57306C3.80823 7.14003 3.56537 6.55288 3.56567 5.94079C3.56598 5.32869 3.80943 4.74179 4.24246 4.30919C4.67549 3.87659 5.26264 3.63373 5.87474 3.63403C6.48683 3.63434 7.07373 3.87779 7.50634 4.31082C7.93894 4.74385 8.1818 5.331 8.18149 5.9431ZM8.25073 9.95886H3.63491V24.4064H8.25073V9.95886ZM15.5437 9.95886H10.951V24.4064H15.4976V16.8249C15.4976 12.6014 21.0019 12.2091 21.0019 16.8249V24.4064H25.56V15.2555C25.56 8.13561 17.4131 8.40102 15.4976 11.8975L15.5437 9.95886Z" fill="white"/>
</svg>
