<svg width="56" height="56" viewBox="0 0 56 56" fill="none" xmlns="http://www.w3.org/2000/svg">
<rect width="56" height="56" rx="28" fill="#F81D87"/>
<g clip-path="url(#clip0_3506_428)">
<path fill-rule="evenodd" clip-rule="evenodd" d="M20.1926 19.7542C20.2235 19.4922 20.3152 19.241 20.4604 19.0206C20.6055 18.8003 20.8001 18.6169 21.0286 18.4851C21.2571 18.3532 21.5133 18.2766 21.7767 18.2612C22.0401 18.2458 22.3034 18.2922 22.5457 18.3965C23.7707 18.9202 26.516 20.1648 29.9996 22.1754C33.4843 24.187 35.9354 25.9438 37.0001 26.7409C37.909 27.4226 37.9114 28.7745 37.0012 29.4585C35.947 30.2509 33.5258 31.9846 29.9996 34.0217C26.4699 36.0587 23.7569 37.2884 22.5434 37.8051C21.4984 38.2515 20.3287 37.5744 20.1926 36.4475C20.0334 35.1302 19.7358 32.1392 19.7358 28.0997C19.7358 24.0625 20.0323 21.0726 20.1926 19.7542Z" fill="white"/>
</g>
<defs>
<clipPath id="clip0_3506_428">
<rect width="27.6837" height="27.6837" fill="white" transform="translate(15 14.2637)"/>
</clipPath>
</defs>
</svg>
